<svg width="925" height="661" viewBox="0 0 925 661" fill="none" xmlns="http://www.w3.org/2000/svg">
<path d="M334.737 65.6828L336.632 65.6928L336.662 55.3284C336.669 52.5478 336.739 50.3783 336.869 48.8201C337.043 47.22 337.468 45.853 338.145 44.719C338.822 43.5428 339.794 42.6 341.06 41.8904C342.326 41.1387 343.739 40.767 345.297 40.7752C347.488 40.7868 349.466 41.6188 351.231 43.2713C352.408 44.3729 353.141 45.725 353.431 47.3276C353.764 48.8882 353.926 51.1221 353.918 54.0291L353.885 65.7838L360.205 65.8172C362.648 65.8301 364.501 66.4297 365.761 67.6161C367.064 68.7605 367.713 70.2386 367.708 72.0502C367.701 74.3674 366.77 75.9846 364.914 76.9017C363.099 77.8191 360.486 78.2687 357.073 78.2507L353.85 78.2337L353.761 109.959C353.753 112.655 353.832 114.741 353.996 116.217C354.203 117.65 354.705 118.833 355.503 119.764C356.343 120.653 357.69 121.102 359.544 121.112C360.555 121.117 361.925 120.956 363.653 120.628C365.382 120.258 366.73 120.076 367.699 120.081C369.09 120.088 370.331 120.663 371.423 121.807C372.558 122.908 373.122 124.281 373.118 125.924C373.11 128.704 371.587 130.824 368.55 132.283C365.512 133.741 361.15 134.455 355.462 134.425C350.069 134.397 345.985 133.47 343.209 131.643C340.434 129.817 338.608 127.3 337.732 124.094C336.899 120.887 336.489 116.609 336.504 111.258L336.597 78.1427L334.322 78.1307C331.837 78.1175 329.942 77.5177 328.64 76.3311C327.337 75.1446 326.688 73.6454 326.693 71.8338C326.698 70.0221 327.377 68.5511 328.728 67.4206C330.122 66.2483 332.124 65.669 334.737 65.6828Z" fill="#00A894"/>
<path d="M406.802 50.0192L406.013 75.6021C408.281 73.1438 410.469 71.2099 412.578 69.8004C414.729 68.3922 417.079 67.3697 419.628 66.7327C422.178 66.0536 424.906 65.7594 427.811 65.8501C432.191 65.9869 436.037 67.0344 439.348 68.9925C442.702 70.9519 445.293 73.7306 447.121 77.3285C448.279 79.4301 449.029 81.7719 449.371 84.3538C449.714 86.8937 449.834 89.827 449.732 93.1539L448.714 126.19C448.608 129.644 447.727 132.23 446.072 133.948C444.46 135.668 442.348 136.488 439.737 136.406C434.052 136.229 431.317 132.644 431.533 125.654L432.43 96.5337C432.6 91.017 431.909 86.7592 430.358 83.7601C428.807 80.7188 425.737 79.1265 421.147 78.9832C418.073 78.8872 415.266 79.6847 412.727 81.3758C410.232 83.0261 408.327 85.3482 407.012 88.3422C406.006 90.882 405.402 95.4367 405.2 102.006L404.497 124.81C404.392 128.221 403.533 130.807 401.919 132.569C400.348 134.291 398.194 135.109 395.457 135.023C389.772 134.846 387.037 131.262 387.253 124.271L389.557 49.4807C389.665 45.9854 390.482 43.3975 392.009 41.7169C393.58 39.9956 395.713 39.177 398.408 39.2612C401.145 39.3466 403.244 40.2974 404.706 42.1134C406.21 43.9308 406.908 46.566 406.802 50.0192Z" fill="#00A894"/>
<path d="M513.83 118.494L480.64 112.389C479.964 116.248 480.098 119.786 481.043 123.001C482.029 126.224 483.626 128.809 485.834 130.758C488.084 132.714 490.722 133.97 493.747 134.527C495.777 134.9 497.663 135.011 499.406 134.861C501.197 134.676 502.973 134.232 504.732 133.527C506.5 132.781 508.154 131.95 509.696 131.035C511.238 130.119 513.251 128.861 515.734 127.262C516.743 126.676 518.055 126.532 519.671 126.829C521.412 127.149 522.732 127.885 523.632 129.036C524.532 130.187 524.82 131.632 524.496 133.371C524.211 134.904 523.275 136.595 521.688 138.445C520.108 140.254 517.919 141.886 515.119 143.342C512.369 144.763 509.034 145.756 505.115 146.321C501.237 146.893 496.916 146.74 492.151 145.864C481.253 143.859 473.357 139.194 468.464 131.868C463.571 124.542 462.115 115.557 464.097 104.912C465.029 99.8999 466.639 95.398 468.925 91.4061C471.218 87.3728 474.08 84.0866 477.51 81.5474C480.939 79.0082 484.897 77.3158 489.383 76.4703C493.876 75.5833 498.671 75.6086 503.768 76.5461C510.398 77.7656 515.812 80.2181 520.012 83.9036C524.261 87.5553 527.153 91.8143 528.69 96.6807C530.227 101.547 530.568 106.279 529.712 110.877C528.918 115.143 527.179 117.693 524.495 118.528C521.819 119.321 518.264 119.309 513.83 118.494ZM482.432 102.758L513.199 108.418C513.864 102.543 513.095 97.9246 510.892 94.5635C508.739 91.1687 505.445 89.0635 501.011 88.2479C496.785 87.4705 493.03 88.3006 489.748 90.7384C486.515 93.1424 484.076 97.149 482.432 102.758Z" fill="#00A894"/>
<path d="M641.965 118.159L623.678 136.843C628.317 136.704 632.445 137.177 636.063 138.262C639.709 139.316 643.295 141.568 646.82 145.018C650.882 148.994 653.487 153.444 654.633 158.368C655.839 163.291 655.48 168.408 653.556 173.719C651.692 179.03 648.304 184.194 643.393 189.212C639.767 192.916 635.956 195.854 631.96 198.025C628.023 200.195 624.047 201.538 620.033 202.054C616.019 202.57 612.113 202.198 608.317 200.938C604.579 199.678 601.172 197.542 598.095 194.531C596.213 192.689 594.655 190.725 593.421 188.64C592.217 186.584 591.383 184.627 590.92 182.77C590.486 180.883 590.231 179.142 590.154 177.547C590.108 175.981 590.173 173.764 590.349 170.895L589.165 172.105C586.914 174.405 584.651 175.611 582.376 175.724C580.131 175.807 578.157 175.016 576.454 173.349C574.722 171.654 573.903 169.712 573.998 167.523C574.151 165.335 575.354 163.09 577.605 160.79L629.879 107.382C632.306 104.903 634.626 103.519 636.84 103.229C639.112 102.938 641.145 103.67 642.937 105.424C644.819 107.266 645.668 109.297 645.485 111.515C645.331 113.704 644.158 115.919 641.965 118.159ZM606.982 155.066C602.217 159.935 599.653 164.765 599.29 169.557C598.987 174.349 600.643 178.513 604.257 182.051C607.333 185.062 611.278 186.32 616.09 185.825C620.962 185.33 625.839 182.588 630.721 177.599C633.879 174.374 636.135 171.142 637.489 167.906C638.844 164.67 639.283 161.591 638.809 158.67C638.363 155.72 637.006 153.133 634.735 150.911C632.405 148.631 629.701 147.241 626.622 146.742C623.572 146.213 620.34 146.647 616.926 148.043C613.542 149.41 610.227 151.751 606.982 155.066Z" fill="#00A894"/>
<path d="M667.301 249.05C662.292 247.504 658.006 245.605 654.442 243.355C650.936 241.114 647.806 238.025 645.051 234.086C642.535 230.49 641.021 226.831 640.508 223.109C640.054 219.397 640.528 215.954 641.929 212.78C643.331 209.607 645.453 207.025 648.295 205.037C652.131 202.354 656.252 201.281 660.659 201.82C665.066 202.359 669.217 204.429 673.112 208.028C673.941 208.775 675.948 210.661 679.135 213.685C682.322 216.71 685.081 219.268 687.413 221.361C689.802 223.464 692.455 225.689 695.372 228.036C698.951 225.277 701.129 222.631 701.907 220.097C702.744 217.574 701.712 214.24 698.813 210.096C696.322 206.534 693.944 204.193 691.681 203.073C689.442 201.986 686.874 201.487 683.977 201.576C681.105 201.698 679.151 201.713 678.117 201.62C677.141 201.538 676.042 200.623 674.82 198.876C673.718 197.301 673.257 195.584 673.435 193.724C673.672 191.875 674.578 190.4 676.154 189.298C678.619 187.573 681.628 186.769 685.179 186.886C688.729 187.004 692.552 188.385 696.646 191.03C700.741 193.674 704.717 197.754 708.574 203.268C712.887 209.432 715.54 214.794 716.535 219.352C717.565 223.885 717.007 227.974 714.863 231.616C712.742 235.293 709.079 238.952 703.873 242.594C700.585 244.894 697.782 246.83 695.463 248.401C693.169 250.006 690.605 251.774 687.773 253.704C685.136 255.549 682.678 257.906 680.4 260.774C678.18 263.653 676.66 265.38 675.838 265.955C674.399 266.962 672.601 267.199 670.444 266.668C668.346 266.147 666.697 265.03 665.499 263.317C664.493 261.879 664.167 259.99 664.52 257.652C664.908 255.289 665.835 252.422 667.301 249.05ZM686.947 233.929C684.756 232.402 681.854 229.968 678.243 226.628C674.69 223.299 672.181 221.024 670.715 219.805C669.284 218.562 667.508 217.662 665.385 217.107C663.296 216.528 661.225 216.957 659.17 218.394C657.046 219.88 655.794 221.954 655.413 224.618C655.067 227.258 655.804 229.879 657.625 232.482C659.565 235.257 661.949 237.389 664.777 238.879C667.663 240.38 670.449 241.007 673.133 240.761C676.143 240.543 680.08 238.733 684.943 235.331L686.947 233.929Z" fill="#00A894"/>
<path d="M743.369 275.671L741.487 276.53C746.349 277.619 750.353 279.398 753.501 281.867C756.704 284.357 759.269 287.712 761.195 291.933C763.068 296.04 763.849 300.117 763.536 304.165C763.224 308.212 761.797 311.781 759.255 314.87C757.822 316.764 756.072 318.366 754.006 319.677C751.939 320.987 749.195 322.423 745.772 323.985L716.796 337.205C713.678 338.627 710.991 338.98 708.735 338.264C706.496 337.586 704.856 336.106 703.815 333.824C702.756 331.505 702.715 329.249 703.691 327.058C704.667 324.867 706.676 323.078 709.718 321.69L735.671 309.849C740.804 307.507 744.391 304.998 746.432 302.321C748.528 299.665 748.604 296.207 746.661 291.948C745.395 289.172 743.404 287.025 740.69 285.507C738.014 283.972 734.988 283.331 731.612 283.585C728.946 283.882 724.437 285.48 718.087 288.377L698.58 297.277C695.423 298.717 692.709 299.06 690.435 298.306C688.217 297.572 686.578 296.046 685.52 293.726C684.496 291.482 684.472 289.265 685.448 287.074C686.424 284.883 688.433 283.094 691.475 281.706L736.479 261.173C739.445 259.82 741.945 259.46 743.98 260.093C746.053 260.71 747.601 262.14 748.625 264.383C749.25 265.752 749.49 267.135 749.347 268.533C749.204 269.931 748.633 271.248 747.635 272.484C746.654 273.758 745.232 274.821 743.369 275.671Z" fill="#00A894"/>
<path d="M733.476 401.208C729.348 397.977 726.021 394.675 723.494 391.301C721.018 387.957 719.196 383.954 718.027 379.292C716.96 375.035 716.851 371.076 717.7 367.416C718.6 363.787 720.27 360.739 722.712 358.274C725.153 355.809 728.056 354.155 731.421 353.311C735.962 352.173 740.195 352.641 744.119 354.717C748.044 356.792 751.183 360.207 753.538 364.959C754.046 365.952 755.249 368.43 757.147 372.393C759.045 376.355 760.71 379.73 762.141 382.516C763.623 385.333 765.308 388.358 767.196 391.591C771.524 390.29 774.503 388.595 776.133 386.506C777.815 384.447 778.041 380.965 776.811 376.059C775.754 371.843 774.368 368.808 772.653 366.954C770.949 365.14 768.728 363.758 765.99 362.807C763.263 361.896 761.433 361.213 760.5 360.758C759.618 360.333 758.917 359.086 758.399 357.019C757.931 355.154 758.113 353.385 758.943 351.711C759.824 350.069 761.196 349.013 763.061 348.546C765.98 347.814 769.078 348.136 772.353 349.513C775.628 350.889 778.706 353.543 781.588 357.474C784.47 361.406 786.729 366.635 788.365 373.162C790.195 380.46 790.761 386.415 790.065 391.028C789.409 395.631 787.43 399.251 784.127 401.889C780.834 404.567 776.106 406.679 769.944 408.224C766.052 409.2 762.743 410.008 760.016 410.649C757.3 411.33 754.274 412.067 750.94 412.859C747.818 413.642 744.682 414.967 741.53 416.835C738.429 418.732 736.393 419.803 735.42 420.047C733.717 420.474 731.953 420.054 730.127 418.789C728.352 417.553 727.211 415.922 726.702 413.895C726.276 412.192 726.644 410.311 727.809 408.252C729.014 406.184 730.903 403.836 733.476 401.208ZM757.222 394.091C755.721 391.882 753.879 388.574 751.696 384.166C749.564 379.788 748.032 376.768 747.098 375.106C746.205 373.434 744.866 371.96 743.081 370.684C741.336 369.398 739.248 369.059 736.815 369.669C734.301 370.299 732.392 371.791 731.085 374.144C729.82 376.486 729.573 379.198 730.346 382.279C731.169 385.563 732.636 388.406 734.746 390.807C736.907 393.238 739.285 394.818 741.881 395.546C744.77 396.416 749.094 396.129 754.851 394.686L757.222 394.091Z" fill="#00A894"/>
<path d="M788.071 461.496L786.009 461.334C789.732 464.644 792.372 468.142 793.928 471.828C795.523 475.558 796.139 479.736 795.777 484.361C795.425 488.861 794.131 492.806 791.895 496.194C789.659 499.583 786.681 502.012 782.96 503.482C780.789 504.443 778.482 504.996 776.039 505.141C773.596 505.285 770.499 505.21 766.749 504.916L734.997 502.43C731.58 502.163 729.058 501.169 727.432 499.448C725.803 497.77 725.086 495.68 725.282 493.18C725.481 490.638 726.538 488.646 728.454 487.203C730.37 485.759 732.994 485.168 736.328 485.429L764.767 487.656C770.393 488.096 774.747 487.641 777.829 486.289C780.95 484.982 782.693 481.995 783.058 477.328C783.297 474.286 782.597 471.444 780.959 468.8C779.363 466.159 777.027 464.132 773.952 462.717C771.475 461.685 766.758 460.896 759.799 460.351L738.422 458.678C734.964 458.407 732.423 457.39 730.8 455.628C729.216 453.911 728.523 451.782 728.722 449.24C728.915 446.781 729.969 444.83 731.885 443.387C733.8 441.944 736.425 441.353 739.758 441.614L789.074 445.475C792.324 445.73 794.686 446.627 796.158 448.168C797.672 449.712 798.333 451.713 798.141 454.172C798.023 455.672 797.563 456.998 796.76 458.151C795.957 459.304 794.819 460.179 793.347 460.777C791.872 461.416 790.113 461.656 788.071 461.496Z" fill="#00A894"/>
<path d="M718.034 569.736C715.786 565 714.287 560.558 713.536 556.411C712.817 552.313 712.977 547.918 714.016 543.225C714.965 538.94 716.637 535.35 719.033 532.456C721.461 529.612 724.318 527.633 727.604 526.52C730.89 525.407 734.227 525.225 737.614 525.975C742.184 526.988 745.76 529.299 748.343 532.911C750.925 536.522 752.207 540.98 752.188 546.284C752.198 547.399 752.166 550.153 752.092 554.546C752.018 558.939 751.998 562.702 752.032 565.835C752.098 569.017 752.253 572.476 752.496 576.212C756.948 576.983 760.371 576.8 762.764 575.66C765.188 574.57 766.947 571.556 768.041 566.619C768.981 562.374 769.098 559.04 768.394 556.615C767.68 554.231 766.312 552.002 764.288 549.927C762.256 547.893 760.924 546.463 760.293 545.639C759.694 544.864 759.625 543.436 760.086 541.355C760.502 539.477 761.455 537.976 762.946 536.851C764.468 535.775 766.168 535.445 768.045 535.861C770.983 536.512 773.61 538.185 775.924 540.881C778.238 543.576 779.805 547.327 780.624 552.131C781.444 556.936 781.126 562.624 779.671 569.194C778.044 576.54 775.888 582.12 773.203 585.934C770.558 589.758 767.169 592.111 763.035 592.994C758.892 593.917 753.719 593.692 747.516 592.318C743.598 591.451 740.277 590.694 737.552 590.047C734.818 589.442 731.782 588.748 728.445 587.967C725.303 587.271 721.905 587.053 718.251 587.314C714.629 587.625 712.328 587.672 711.349 587.455C709.635 587.076 708.244 585.912 707.178 583.963C706.143 582.064 705.851 580.095 706.303 578.054C706.682 576.341 707.853 574.823 709.815 573.502C711.818 572.191 714.558 570.935 718.034 569.736ZM742.457 573.988C742.101 571.341 741.933 567.558 741.952 562.639C742.003 557.77 741.982 554.384 741.89 552.48C741.839 550.585 741.3 548.667 740.274 546.728C739.289 544.797 737.572 543.561 735.124 543.019C732.594 542.458 730.218 542.938 727.998 544.459C725.819 545.988 724.385 548.304 723.699 551.405C722.967 554.71 723.008 557.909 723.821 561C724.667 564.141 726.088 566.618 728.084 568.43C730.279 570.5 734.275 572.177 740.069 573.46L742.457 573.988Z" fill="#00A894"/>
<path d="M24.8366 74.0999V76.1854C28.0808 72.1829 31.4513 69.2547 34.9482 67.4009C38.4452 65.505 42.4056 64.5571 46.8294 64.5571C52.138 64.5571 57.0253 65.9263 61.4912 68.6649C65.9572 71.4035 69.4752 75.406 72.0452 80.6724C74.6574 85.9389 75.9634 92.1744 75.9634 99.3789C75.9634 104.687 75.2051 109.575 73.6883 114.041C72.2137 118.465 70.1703 122.193 67.5582 125.227C64.946 128.218 61.8493 130.535 58.2681 132.178C54.7291 133.779 50.9162 134.58 46.8294 134.58C41.9 134.58 37.75 133.59 34.3795 131.61C31.0511 129.629 27.8701 126.722 24.8366 122.888V148.799C24.8366 156.383 22.077 160.175 16.5578 160.175C13.3136 160.175 11.1649 159.185 10.1116 157.205C9.05831 155.267 8.53167 152.423 8.53167 148.673V74.2263C8.53167 70.94 9.24791 68.4964 10.6804 66.8954C12.1129 65.2522 14.072 64.4307 16.5578 64.4307C19.0014 64.4307 20.9816 65.2733 22.4983 66.9586C24.0572 68.6017 24.8366 70.9821 24.8366 74.0999ZM58.6473 99.1893C58.6473 94.6391 57.9521 90.7419 56.5618 87.4978C55.1715 84.2115 53.2334 81.7047 50.7476 79.9773C48.304 78.2077 45.5865 77.323 42.5951 77.323C37.8343 77.323 33.8107 79.1978 30.5244 82.9475C27.2803 86.6973 25.6582 92.2165 25.6582 99.5053C25.6582 106.373 27.2803 111.723 30.5244 115.557C33.7686 119.349 37.7921 121.245 42.5951 121.245C45.4601 121.245 48.1144 120.424 50.558 118.781C53.0017 117.095 54.9608 114.588 56.4354 111.26C57.91 107.932 58.6473 103.908 58.6473 99.1893ZM137.96 103.74H104.213C104.255 107.658 105.034 111.113 106.551 114.104C108.11 117.095 110.153 119.349 112.681 120.866C115.251 122.383 118.074 123.141 121.15 123.141C123.214 123.141 125.089 122.909 126.774 122.446C128.502 121.94 130.166 121.182 131.767 120.171C133.368 119.118 134.842 118.001 136.191 116.821C137.539 115.642 139.287 114.041 141.436 112.018C142.321 111.26 143.585 110.881 145.228 110.881C146.997 110.881 148.43 111.365 149.525 112.334C150.621 113.303 151.169 114.673 151.169 116.442C151.169 118.001 150.558 119.834 149.336 121.94C148.114 124.005 146.26 126.006 143.774 127.944C141.331 129.84 138.234 131.42 134.484 132.684C130.777 133.948 126.5 134.58 121.655 134.58C110.575 134.58 101.959 131.42 95.8075 125.1C89.6563 118.781 86.5806 110.207 86.5806 99.3789C86.5806 94.281 87.339 89.5622 88.8558 85.2227C90.3725 80.841 92.5844 77.0912 95.4915 73.9735C98.3986 70.8557 101.98 68.4753 106.235 66.8322C110.49 65.1469 115.209 64.3043 120.391 64.3043C127.132 64.3043 132.904 65.7367 137.707 68.6017C142.553 71.4245 146.176 75.09 148.577 79.5981C150.979 84.1062 152.18 88.6985 152.18 93.3751C152.18 97.7147 150.937 100.538 148.451 101.844C145.965 103.108 142.468 103.74 137.96 103.74ZM104.213 93.9439H135.496C135.074 88.0455 133.473 83.6427 130.693 80.7356C127.954 77.7864 124.331 76.3118 119.823 76.3118C115.525 76.3118 111.986 77.8075 109.205 80.7988C106.467 83.748 104.803 88.1297 104.213 93.9439ZM214.935 103.74H181.187C181.229 107.658 182.009 111.113 183.526 114.104C185.085 117.095 187.128 119.349 189.656 120.866C192.226 122.383 195.049 123.141 198.124 123.141C200.189 123.141 202.064 122.909 203.749 122.446C205.476 121.94 207.14 121.182 208.741 120.171C210.342 119.118 211.817 118.001 213.165 116.821C214.514 115.642 216.262 114.041 218.411 112.018C219.295 111.26 220.559 110.881 222.203 110.881C223.972 110.881 225.405 111.365 226.5 112.334C227.595 113.303 228.143 114.673 228.143 116.442C228.143 118.001 227.532 119.834 226.31 121.94C225.089 124.005 223.235 126.006 220.749 127.944C218.305 129.84 215.209 131.42 211.459 132.684C207.751 133.948 203.475 134.58 198.63 134.58C187.549 134.58 178.933 131.42 172.782 125.1C166.631 118.781 163.555 110.207 163.555 99.3789C163.555 94.281 164.314 89.5622 165.83 85.2227C167.347 80.841 169.559 77.0912 172.466 73.9735C175.373 70.8557 178.954 68.4753 183.21 66.8322C187.465 65.1469 192.184 64.3043 197.366 64.3043C204.107 64.3043 209.879 65.7367 214.682 68.6017C219.527 71.4245 223.151 75.09 225.552 79.5981C227.954 84.1062 229.154 88.6985 229.154 93.3751C229.154 97.7147 227.911 100.538 225.426 101.844C222.94 103.108 219.443 103.74 214.935 103.74ZM181.187 93.9439H212.47C212.049 88.0455 210.448 83.6427 207.667 80.7356C204.929 77.7864 201.305 76.3118 196.797 76.3118C192.5 76.3118 188.961 77.8075 186.18 80.7988C183.441 83.748 181.777 88.1297 181.187 93.9439ZM243.753 124.089V49.2633C243.753 45.8085 244.511 43.1963 246.028 41.4268C247.587 39.6572 249.672 38.7725 252.285 38.7725C254.897 38.7725 257.003 39.6572 258.604 41.4268C260.205 43.1542 261.006 45.7663 261.006 49.2633V124.089C261.006 127.586 260.184 130.219 258.541 131.989C256.94 133.716 254.855 134.58 252.285 134.58C249.757 134.58 247.692 133.674 246.091 131.862C244.532 130.051 243.753 127.46 243.753 124.089Z" fill="#00A894"/>
</svg>
